<svg xmlns="http://www.w3.org/2000/svg" id="mainImage_create" data-name="mainImage" viewBox="0 0 171.2 81.5"><style id="svgStyle">@import url(https://fonts.googleapis.com/css?family=Merriweather);@keyframes earmove{0%,30%{transform:translateX(-.3px) translateY(.6px)}60%{transform:translateX(-.7px) translateY(0)}70%{transform:translateX(-.7px) translateY(-.3px)}}@keyframes move{0%,30%{transform:translateX(-.3px) translateY(.6px)}60%{transform:translateX(2px) translateY(0)}70%{transform:translateX(2px) translateY(-.3px)}}@keyframes neck{0%,50%{transform:translateY(.7px)}}.changeColor{fill:#4f86ed}#title{font-size:50%;font-family:&apos;Merriweather&apos;,serif}.cls-1{opacity:.3}.cls-7{opacity:.8}.cls-2{fill:#fff}.cls-10,.cls-11,.cls-12,.cls-14,.cls-16,.cls-3{fill:none}.cls-3{stroke:#5c7690}.cls-10,.cls-11,.cls-12,.cls-3{stroke-miterlimit:10}.cls-14,.cls-15,.cls-16,.cls-3{stroke-width:.5px}.cls-4{fill:#ffe1d9}.cls-5{fill:#ffcfbf}.cls-6{fill:#fecbb6}.cls-9{fill:#fecb02}.cls-10,.cls-12{stroke:#d26f51}.cls-10,.cls-11{stroke-width:.38px}.cls-11{stroke:#000}.cls-12{stroke-width:.19px}.cls-13{opacity:.45}.cls-14,.cls-15,.cls-16{stroke:#b0bec5;stroke-linejoin:round}.cls-15{fill:#edf0f2}.cls-16{stroke-linecap:round}.cls-18{fill:#fffdbb;opacity:.5}.earMove{animation:earmove 1.5s linear infinite alternate}.earMove,.faceMove,.neckMove{transition:all ease-in-out 2s;transform-origin:50% 50%}.faceMove{animation:move 1.5s linear infinite alternate}.neckMove{animation:neck 1.5s linear infinite alternate}</style><path id="c-1" fill="#4846E8" d="M46.62,52.5c5.78,4.9,21.14,8.4,39.19,8.4s33.41-3.5,39.19-8.4c-5.78-4.9-21.14-8.4-39.19-8.4S52.41,47.6,46.62,52.5Z" class="changeColor cls-1"/><path d="M99.73,47.71H68.65a7.13,7.13,0,0,0-7.13,7.13V60a152.58,152.58,0,0,0,24.3,1.83,157.87,157.87,0,0,0,21.05-1.35V54.84A7.13,7.13,0,0,0,99.73,47.71Z" class="cls-2"/><path d="M123.56,55.81C115,58.94,101.27,61,85.81,61c-26,0-47-5.71-47-12.76,0-3.45,5.05-6.58,13.25-8.88" class="cls-3"/><path d="M55.37,38.47a140,140,0,0,1,30.44-3c26,0,47,5.71,47,12.76,0,2.4-2.44,4.65-6.69,6.57" class="cls-3"/><path d="M53.41,38.95l.94-.24" class="cls-3"/><path d="M91.68,47.71l-.75-11.2L79.15,43.84l-1.69,3.87H75.79c0,3.36,3.76,6.08,8.4,6.08s8.4-2.72,8.4-6.08Z" class="cls-4"/><path d="M78,46.53a27.19,27.19,0,0,0,6.41.82c3.1,0,7.11-2.19,7.11-2.19l-.42-6.2L79.15,43.84Z" class="cls-5 neckMove"/><polygon points="92.59 32.22 92.59 28.5 76.77 27.71 76.77 32.22 92.59 32.22" class="earMove"/><circle cx="78.06" cy="34.04" r="2.47" class="cls-6 earMove"/><path d="M81.74,57.06,60.63,49.72h0A6.72,6.72,0,1,0,57.7,62.49H93.25C93.25,56.78,81.74,57.06,81.74,57.06Z" class="cls-4"/><path d="M77.46,25H90.92a0,0,0,0,1,0,0V39.38a6.73,6.73,0,0,1-6.73,6.73h0a6.73,6.73,0,0,1-6.73-6.73V25A0,0,0,0,1,77.46,25Z" class="cls-4"/><rect id="c-2" width="19.14" height="2.45" x="74.82" y="26.48" fill="#4846E8" class="changeColor cls-7" transform="translate(1.29 -3.65) rotate(2.49)"/><path id="c-3" fill="#4846E8" d="M84.36,18.69h.5a7.8,7.8,0,0,1,7.8,7.8v0a0,0,0,0,1,0,0H76.56a0,0,0,0,1,0,0v0A7.8,7.8,0,0,1,84.36,18.69Z" class="changeColor cls-7" transform="translate(1.06 -3.66) rotate(2.49)"/><polygon id="c-4" fill="#4846E8" points="82.44 23.89 92.18 24.32 92.59 24.34 92.48 26.84 80.96 26.33 82.44 23.89" class="changeColor cls-8"/><circle cx="78.72" cy="23.73" r="3.73" class="cls-9 faceMove" transform="translate(51.58 101.34) rotate(-87.51)"/><circle cx="78.72" cy="23.73" r="2.36" class="cls-2 faceMove" transform="translate(51.58 101.34) rotate(-87.51)"/><circle cx="90.92" cy="34.04" r="2.47" class="cls-4 earMove"/><path d="M112.2,53l-9.87-21.92-3-5.48-11.86-.22,7.42,3.35H91.55l5.82,4.58,2,22.26h0A6.72,6.72,0,1,0,112.2,53Z" class="cls-4"/><ellipse cx="80.09" cy="33.12" class="faceMove" rx=".53" ry=".59"/><ellipse cx="86.34" cy="33.12" class="faceMove" rx=".53" ry=".59"/><polyline points="84.19 31.08 81.74 37.01 84.39 37.01" class="cls-10 faceMove"/><path d="M83.06,40.36a4,4,0,0,1,2.75-1" class="cls-10 faceMove"/><line x1="81.07" x2="78.47" y1="30.33" y2="30.58" class="cls-11 faceMove"/><line x1="86.34" x2="88.15" y1="30.45" y2="31.08" class="cls-11 faceMove"/><line x1="106.86" x2="110.99" y1="47.82" y2="46.11" class="cls-12"/><line x1="107.43" x2="111.55" y1="49.9" y2="48.19" class="cls-12"/><line x1="107.99" x2="112.11" y1="51.98" y2="50.27" class="cls-12"/><g class="cls-13"><rect width="10.77" height="3.5" x="85.81" y="2.46" class="cls-14"/><rect width="10.77" height="3.5" x="96.58" y="2.46" class="cls-15"/><rect width="10.77" height="3.5" x="92.19" y="5.95" class="cls-14"/><line x1="107.36" x2="109.63" y1="5.95" y2="5.95" class="cls-16"/><line x1="110.68" x2="111.57" y1="5.95" y2="5.95" class="cls-16"/></g><g class="cls-13"><rect width="10.77" height="3.5" x="125" y="23.12" class="cls-16"/><rect width="10.77" height="3.5" x="130.39" y="26.62" class="cls-15"/><rect width="10.77" height="3.5" x="119.62" y="26.62" class="cls-16"/><line x1="141.16" x2="145.73" y1="26.62" y2="26.62" class="cls-16"/><line x1="125" x2="115.4" y1="23.12" y2="23.12" class="cls-16"/><line x1="117.95" x2="115.4" y1="26.62" y2="26.62" class="cls-16"/></g><g class="cls-13"><rect width="10.77" height="3.5" x="39.34" y="16.12" class="cls-16"/><rect width="10.77" height="3.5" x="39.34" y="23.11" class="cls-16"/><rect width="10.77" height="3.5" x="50.11" y="23.11" class="cls-16"/><rect width="10.77" height="3.5" x="50.11" y="16.12" class="cls-16"/><rect width="10.77" height="3.5" x="44" y="19.61" class="cls-15"/><rect width="10.77" height="3.5" x="33.23" y="19.61" class="cls-16"/><line x1="60.89" x2="65.51" y1="19.61" y2="19.61" class="cls-16"/><line x1="39.34" x2="35.46" y1="16.12" y2="16.12" class="cls-16"/><line x1="36.45" x2="33.23" y1="26.61" y2="26.61" class="cls-16"/><line x1="63.2" x2="65.51" y1="23.11" y2="23.11" class="cls-16"/></g><polyline points="115.4 58.12 115.4 38.27 120.2 37.01" class="cls-3"/><polyline points="129.01 53.21 129.01 43.14 131.74 42.13" class="cls-3"/><path d="M115.4,42.13a53.27,53.27,0,0,1,8,2A42,42,0,0,1,129,47" class="cls-3"/><path d="M115.4,47.34a53.27,53.27,0,0,1,8,2A42,42,0,0,1,129,52.22" class="cls-3"/><path d="M115.4,52.56a53.27,53.27,0,0,1,8,2l1,.42" class="cls-3"/><path d="M78.84,26.09l0-4.71L68.05,18.32a.91.91,0,0,0-.45-.13c-1.17,0-2.11,2.46-2.11,5.5s.95,5.5,2.11,5.5a.9.9,0,0,0,.44-.12Z" class="cls-18 faceMove"/><path d="M57.7,62.49H93.25A3.67,3.67,0,0,0,92.92,61H53.43A6.69,6.69,0,0,0,57.7,62.49Z" class="cls-5"/><path d="M88.15,60.27s1.7.95,1.7,2.22" class="cls-12"/><path d="M101.81,61a6.68,6.68,0,0,0,8.51,0Z" class="cls-5"/><polygon points="90.92 30.25 77.46 29.69 77.46 28.64 90.92 29.22 90.92 30.25" class="cls-5"/><text id="title" transform="matrix(1 0 0 1 44.7249 78)">Damn... You lost 🤪</text></svg>